<svg xmlns="http://www.w3.org/2000/svg" width="415" height="49" fill="none" viewBox="0 0 415 49"><g filter="url(#a)"><path fill="#1c5d93" d="m208.339 6.017 18.322 18.322-18.322 18.323-18.323-18.323z"/></g><g filter="url(#b)"><path fill="#28dbff" fill-rule="evenodd" d="M206 15h3l-1 13h-1zm1.5 18a1.5 1.5 0 1 0 0-3 1.5 1.5 0 0 0 0 3" clip-rule="evenodd"/></g><circle cx="180.5" cy="24.5" r=".5" fill="#28dbff"/><path fill="url(#c)" d="M0 24h176v1H0z"/><path fill="url(#d)" fill-rule="evenodd" d="M181.793 18.854 188.646 12l.708.707-7.147 7.147H86.5v-1z" clip-rule="evenodd"/><path fill="url(#e)" fill-rule="evenodd" d="m181.793 30 6.853 6.854.708-.707L182.207 29H86.5v1z" clip-rule="evenodd"/><circle cx="235.5" cy="24.5" r=".5" fill="#28dbff" transform="rotate(180 235.5 24.5)"/><path fill="url(#f)" fill-rule="evenodd" d="m233.561 30-6.854 6.853-.707-.707L233.146 29h95.708v1z" clip-rule="evenodd"/><path fill="url(#g)" fill-rule="evenodd" d="M233.571 18.981 226.708 12l-.708.72 7.157 7.28H329v-1.02z" clip-rule="evenodd"/><path fill="url(#h)" d="M415 25h176v1H415z" transform="rotate(180 415 25)"/><path stroke="#28dbff" d="m208.339.724 23.615 23.615-23.615 23.615-23.615-23.615z"/><defs><linearGradient id="c" x1="0" x2="176" y1="24.5" y2="24.5" gradientUnits="userSpaceOnUse"><stop stop-color="#28dbff" stop-opacity="0"/><stop offset="1" stop-color="#28dbff"/></linearGradient><linearGradient id="d" x1="86.5" x2="189.354" y1="15.927" y2="15.927" gradientUnits="userSpaceOnUse"><stop stop-color="#28dbff" stop-opacity="0"/><stop offset="1" stop-color="#28dbff"/></linearGradient><linearGradient id="e" x1="86.5" x2="189.354" y1="32.927" y2="32.927" gradientUnits="userSpaceOnUse"><stop stop-color="#28dbff" stop-opacity="0"/><stop offset="1" stop-color="#28dbff"/></linearGradient><linearGradient id="f" x1="328.854" x2="226" y1="32.927" y2="32.927" gradientUnits="userSpaceOnUse"><stop stop-color="#28dbff" stop-opacity="0"/><stop offset="1" stop-color="#28dbff"/></linearGradient><linearGradient id="g" x1="329" x2="226" y1="16" y2="16" gradientUnits="userSpaceOnUse"><stop stop-color="#28dbff" stop-opacity="0"/><stop offset="1" stop-color="#28dbff"/></linearGradient><linearGradient id="h" x1="415" x2="591" y1="25.5" y2="25.5" gradientUnits="userSpaceOnUse"><stop stop-color="#28dbff" stop-opacity="0"/><stop offset="1" stop-color="#28dbff"/></linearGradient><filter id="a" width="36.645" height="38.645" x="190.017" y="6.017" color-interpolation-filters="sRGB" filterUnits="userSpaceOnUse"><feFlood flood-opacity="0" result="BackgroundImageFix"/><feBlend in="SourceGraphic" in2="BackgroundImageFix" result="shape"/><feColorMatrix in="SourceAlpha" result="hardAlpha" values="0 0 0 0 0 0 0 0 0 0 0 0 0 0 0 0 0 0 127 0"/><feOffset dy="2"/><feGaussianBlur stdDeviation="1"/><feComposite in2="hardAlpha" k2="-1" k3="1" operator="arithmetic"/><feColorMatrix values="0 0 0 0 0 0 0 0 0 0 0 0 0 0 0 0 0 0 0.25 0"/><feBlend in2="shape" result="effect1_innerShadow_2002_2"/></filter><filter id="b" width="11" height="26" x="202" y="15" color-interpolation-filters="sRGB" filterUnits="userSpaceOnUse"><feFlood flood-opacity="0" result="BackgroundImageFix"/><feColorMatrix in="SourceAlpha" result="hardAlpha" values="0 0 0 0 0 0 0 0 0 0 0 0 0 0 0 0 0 0 127 0"/><feOffset dy="4"/><feGaussianBlur stdDeviation="2"/><feComposite in2="hardAlpha" operator="out"/><feColorMatrix values="0 0 0 0 0 0 0 0 0 0 0 0 0 0 0 0 0 0 0.25 0"/><feBlend in2="BackgroundImageFix" result="effect1_dropShadow_2002_2"/><feBlend in="SourceGraphic" in2="effect1_dropShadow_2002_2" result="shape"/></filter></defs></svg>