<svg xmlns="http://www.w3.org/2000/svg" width="357" height="344" fill="none" viewBox="0 0 357 344"><path fill="url(#a)" d="M17.707 174.707 187 344V4L17.707 173.293a1 1 0 0 0 0 1.414"/><mask id="c" width="170" height="340" x="17" y="4" maskUnits="userSpaceOnUse" style="mask-type:alpha"><path fill="url(#b)" d="M17.707 174.707 187 344V4L17.707 173.293a1 1 0 0 0 0 1.414"/></mask><g stroke="#0e6291" stroke-linecap="round" mask="url(#c)"><path d="M17.734 174 158.86 32.875"/><path d="m17.734 174 103.328 103.438" opacity=".3"/></g><g filter="url(#d)"><path fill="url(#e)" fill-rule="evenodd" d="M180.476 1.707a1 1 0 0 1 0 1.414L10.795 172.803a1 1 0 0 0 0 1.414l120.181 120.181a1 1 0 0 1-1.414 1.414L8.673 174.924a2 2 0 0 1 0-2.828L179.061 1.707a1 1 0 0 1 1.415 0" clip-rule="evenodd"/></g><g filter="url(#f)"><path fill="url(#g)" fill-opacity=".85" d="M5.828 174.174a4 4 0 0 1 0-5.657l36.219-36.218a4 4 0 0 1 5.656 0l1.503 1.503a4 4 0 0 1 0 5.656l-36.218 36.219a4 4 0 0 1-5.657 0z"/></g><g filter="url(#h)"><path fill="#8defee" d="M7.545 174.078a1 1 0 0 1 .002-1.416l37.476-37.253a1 1 0 0 1 1.412.002l.422.423a1 1 0 0 1-.002 1.417L9.38 174.503a1 1 0 0 1-1.412-.002z"/></g><defs><filter id="d" width="175.681" height="296.691" x="7.087" y=".414" color-interpolation-filters="sRGB" filterUnits="userSpaceOnUse"><feFlood flood-opacity="0" result="BackgroundImageFix"/><feBlend in="SourceGraphic" in2="BackgroundImageFix" result="shape"/><feColorMatrix in="SourceAlpha" result="hardAlpha" values="0 0 0 0 0 0 0 0 0 0 0 0 0 0 0 0 0 0 127 0"/><feOffset dx="2"/><feGaussianBlur stdDeviation="1"/><feComposite in2="hardAlpha" k2="-1" k3="1" operator="arithmetic"/><feColorMatrix values="0 0 0 0 0.0196078 0 0 0 0 0.792157 0 0 0 0 1 0 0 0 0.05 0"/><feBlend in2="shape" result="effect1_innerShadow_16_157"/><feGaussianBlur result="effect2_foregroundBlur_16_157" stdDeviation=".5"/></filter><filter id="f" width="53.721" height="53.721" x=".657" y="127.128" color-interpolation-filters="sRGB" filterUnits="userSpaceOnUse"><feFlood flood-opacity="0" result="BackgroundImageFix"/><feBlend in="SourceGraphic" in2="BackgroundImageFix" result="shape"/><feGaussianBlur result="effect1_foregroundBlur_16_157" stdDeviation="2"/></filter><filter id="h" width="43.898" height="43.675" x="5.252" y="134.118" color-interpolation-filters="sRGB" filterUnits="userSpaceOnUse"><feFlood flood-opacity="0" result="BackgroundImageFix"/><feColorMatrix in="SourceAlpha" result="hardAlpha" values="0 0 0 0 0 0 0 0 0 0 0 0 0 0 0 0 0 0 127 0"/><feOffset dy="1"/><feGaussianBlur stdDeviation="1"/><feComposite in2="hardAlpha" operator="out"/><feColorMatrix values="0 0 0 0 0.0235294 0 0 0 0 0.215686 0 0 0 0 0.486275 0 0 0 1 0"/><feBlend in2="BackgroundImageFix" mode="screen" result="effect1_dropShadow_16_157"/><feBlend in="SourceGraphic" in2="effect1_dropShadow_16_157" result="shape"/><feColorMatrix in="SourceAlpha" result="hardAlpha" values="0 0 0 0 0 0 0 0 0 0 0 0 0 0 0 0 0 0 127 0"/><feOffset dy="-1"/><feGaussianBlur stdDeviation=".5"/><feComposite in2="hardAlpha" k2="-1" k3="1" operator="arithmetic"/><feColorMatrix values="0 0 0 0 0 0 0 0 0 0.659091 0 0 0 0 1 0 0 0 0.56 0"/><feBlend in2="shape" mode="multiply" result="effect2_innerShadow_16_157"/></filter><radialGradient id="a" cx="0" cy="0" r="1" gradientTransform="rotate(-42.148 234.268 64.942)scale(184.784 153.482)" gradientUnits="userSpaceOnUse"><stop offset=".35" stop-color="#004687" stop-opacity=".86"/><stop offset="1" stop-color="#004687" stop-opacity="0"/></radialGradient><radialGradient id="b" cx="0" cy="0" r="1" gradientTransform="rotate(-42.148 234.268 64.942)scale(184.784 153.482)" gradientUnits="userSpaceOnUse"><stop offset=".35" stop-color="#004687" stop-opacity=".86"/><stop offset="1" stop-color="#004687" stop-opacity="0"/></radialGradient><linearGradient id="e" x1="11.183" x2="146.967" y1="172.604" y2="195.348" gradientUnits="userSpaceOnUse"><stop stop-color="#05caff" stop-opacity=".4"/><stop offset="1" stop-color="#05caff" stop-opacity="0"/></linearGradient><linearGradient id="g" x1="31.648" x2="23.424" y1="157.582" y2="148.594" gradientUnits="userSpaceOnUse"><stop stop-color="#033572"/><stop offset="1" stop-color="#033572" stop-opacity=".8"/></linearGradient></defs></svg>