<svg class="screen-manager-rotate-banner__image" fill="none" height="163" viewBox="0 0 153 163" width="153" xmlns="http://www.w3.org/2000/svg"><path clip-rule="evenodd" d="m135.778 4h-41.5558c-7.3024 0-13.2222 6.0674-13.2222 13.552v93.896c0 7.485 5.9198 13.552 13.2222 13.552h41.5558c7.302 0 13.222-6.067 13.222-13.552v-93.896c0-7.4846-5.92-13.552-13.222-13.552zm-5.178 4h-1.635c.023.16331.035.33025.035.50001 0 1.93299-1.567 3.49999-3.5 3.49999h-21c-1.933 0-3.5-1.567-3.5-3.49999 0-.16976.012-.3367.035-.50001h-1.635c-5.0405 0-7.5607 0-9.4859.98094-1.6935.86286-3.0703 2.23966-3.9332 3.93316-.9809 1.9252-.9809 4.4454-.9809 9.4859v84.2c0 5.04 0 7.561.9809 9.486.8629 1.693 2.2397 3.07 3.9332 3.933 1.9252.981 4.4454.981 9.4859.981h31.2c5.04 0 7.561 0 9.486-.981 1.693-.863 3.07-2.24 3.933-3.933.981-1.925.981-4.446.981-9.486v-84.2c0-5.0405 0-7.5607-.981-9.4859-.863-1.6935-2.24-3.0703-3.933-3.93316-1.925-.98094-4.446-.98094-9.486-.98094z" fill="#fff" fill-rule="evenodd" opacity=".2"></path><rect fill="#454545" height="68" rx="14" width="121" x="4" y="91"></rect><path clip-rule="evenodd" d="m4 145.778v-41.556c0-7.3022 6.0674-13.222 13.552-13.222h93.896c7.485 0 13.552 5.9198 13.552 13.222v41.556c0 7.302-6.067 13.222-13.552 13.222h-93.896c-7.4846 0-13.552-5.92-13.552-13.222zm4-5.178v-1.635c.1633.023.33024.035.50001.035 1.93299 0 3.49999-1.567 3.49999-3.5v-21c0-1.933-1.567-3.5-3.49999-3.5-.16977 0-.33671.012-.50001.035v-1.635c0-5.04 0-7.561.98094-9.4859.86286-1.6935 2.23966-3.0703 3.93316-3.9332 1.9252-.9809 4.4454-.9809 9.4859-.9809h84.2c5.04 0 7.561 0 9.486.9809 1.693.8629 3.07 2.2397 3.933 3.9332.981 1.9249.981 4.4459.981 9.4859v31.2c0 5.04 0 7.561-.981 9.486-.863 1.693-2.24 3.07-3.933 3.933-1.925.981-4.446.981-9.486.981h-84.2c-5.0405 0-7.5607 0-9.4859-.981-1.6935-.863-3.0703-2.24-3.93316-3.933-.98094-1.925-.98094-4.446-.98094-9.486z" fill="#fff" fill-rule="evenodd"></path><path class="arrow_left" d="m35.9999 69.6001c3.3485 3.3485 5.2259 5.2259 8.5745 8.5744" stroke="#5641ff" stroke-linecap="round" stroke-linejoin="round" stroke-width="6"></path><path class="arrow_right" d="m52.8525 70.0005-8.1524 8.1526" stroke="#5641ff" stroke-linecap="round" stroke-linejoin="round" stroke-width="6"></path><path class="arrow_tail" d="m41.7002 76c0 1.6569 1.3431 3 3 3 1.6568 0 3-1.3431 3-3zm27-22c1.6568 0 3-1.3431 3-3s-1.3432-3-3-3zm-21 22v-13h-6v13zm9-22h12v-6h-12zm-9 9c0-4.9706 4.0294-9 9-9v-6c-8.2843 0-15 6.7157-15 15z" fill="#5641ff"></path></svg>